<svg xmlns="http://www.w3.org/2000/svg" id="a" viewBox="0 0 551.4 108.86"><defs><style>.b{fill:#27348b;}.c{fill:#22409a;}.d{fill:none;}.e{fill:#ed1a3b;}</style></defs><g><polygon class="d" points="37.24 82.79 37.24 82.79 37.24 82.78 37.24 82.79"/><polygon class="b" points="115.46 82.79 115.46 82.79 115.46 82.78 115.46 82.79"/><g><path class="c" d="M53.77,45.12h9.87c16.22,0,24.49,3.54,24.49,13.04,0,8.41-6.63,11.97-17.04,11.97h-15.8l-18.06,12.65h33.74c20.2,0,33.81-7.28,33.81-24.11,0-14.68-12.04-20.45-22.78-20.45,7.42,0,16.2-6.65,16.2-17.94S87.88,.91,76.12,.91H34.22l3.02,6.71V76.89l16.53-11.58v-20.19Zm0-31.57h17.33c4.76,0,10.78,1.14,10.78,9.21s-8.61,11.37-15,11.37h-13.11V13.56Z"/><path class="c" d="M131.99,13.56h11.26c4.65,0,28.34,1.18,28.34,28.29,0,30.94-28.34,28.28-28.34,28.28h-9.72l-18.07,12.65h32.44c20.2,0,40.92-12.42,40.92-40.94,0-25.28-18.09-40.94-40.92-40.94h-35.46l3.02,6.71V76.89l16.53-11.57V13.56Z"/><path class="c" d="M196.46,41.84c0,32.67,26.4,41.84,43.51,41.84s43.51-9.18,43.51-41.84S257.07,0,239.96,0s-43.51,9.18-43.51,41.84Zm17.22,0c0-23.15,15.95-29.66,26.29-29.66s26.28,6.5,26.28,29.66-15.95,29.66-26.28,29.66-26.29-6.5-26.29-29.66Z"/></g><g><polygon class="e" points="0 .91 0 102.97 16.15 91.66 16.15 .91 0 .91"/><polygon class="e" points="19.17 95.44 0 108.86 282.57 108.86 282.57 95.44 19.17 95.44"/></g></g><g><path class="e" d="M339.56,29.26h9.6v44.56h18.72v8.16h-28.32V29.26Z"/><path class="e" d="M375.72,29.26h29.12l-2.64,8.16h-16.88v13.76h16.88v8.16h-16.88v14.48h19.6v8.16h-29.2V29.26Z"/><path class="e" d="M460.36,78.54c-4.8,2.4-11.84,4.24-19.2,4.24-17.28,0-27.52-11.12-27.52-26.24,0-16,11.44-27.76,28.96-27.76,6.16,0,11.28,1.2,15.28,2.64v8.96c-4.16-2.08-8.88-3.52-14.56-3.52-12.72,0-19.44,7.84-19.44,19.04s6.64,18.8,18,18.8c3.52,0,6.72-.64,8.8-1.6v-16.72h9.68v22.16Z"/><path class="e" d="M487.16,29.02h7.68l21.2,52.96h-10.4l-5.12-13.2h-18.8l-4.96,13.2h-10l20.4-52.96Zm10.4,31.92l-3.68-10.48c-1.44-4-2.16-6.4-2.64-8.16h-.16c-.48,1.84-1.28,4.16-2.72,8.24l-3.84,10.4h13.04Z"/><path class="e" d="M523.08,29.26h9.6v44.56h18.72v8.16h-28.32V29.26Z"/></g></svg>